<svg viewBox="0 0 100 100" xmlns="http://www.w3.org/2000/svg"><path fill="none" d="M-1-1h102v102H-1z"/><g><path d="M-1-1h402v402H-1V-1z" fill="none"/><g stroke="null"><path d="M.37 2.567h99.26v99.26H.37V2.566z" fill="none"/><g fill-opacity="null"><text stroke="#000" stroke-width="0" stroke-opacity="null" x="270.044" y="311.037" font-size="250" font-family="Helvetica, Arial, sans-serif" transform="matrix(.25776 0 0 .25776 -14.13 9.55)">a</text><text stroke="#000" stroke-width="0" stroke-opacity="null" x="160.208" y="326.664" font-size="250" font-family="Helvetica, Arial, sans-serif" transform="matrix(.2659 0 0 .2659 -33.198 -30.002)">A</text><path d="M35.314 86.325v3.15l16.893-9.755-16.893-9.754v3.38c-4.584.001-12.631-.39-12.631-3.167 0-3.88 8.404-5.95 8.404-5.95v-2.974s-18.88-.645-18.88 13.708c0 11.277 16.17 11.7 23.107 11.362zM66.137 24.4v-3.149l-16.893 9.754 16.893 9.755v-3.38c4.584-.002 12.632.39 12.632 3.167 0 3.879-8.405 5.949-8.405 5.949v2.974s18.88.645 18.88-13.708c0-11.276-16.17-11.7-23.107-11.362h0z" stroke-width=".24691"/></g></g></g></svg>